<svg width="478" height="478" viewBox="0 0 478 478" fill="none" xmlns="http://www.w3.org/2000/svg">
<g clip-path="url(#clip0_18_2)">
<path d="M452.158 25.1251C410.072 -16.9779 326.581 -4.41694 238.688 49.7351C150.795 -4.39994 67.305 -16.9609 25.219 25.1251C-16.868 67.2121 -4.307 150.702 49.846 238.578C-4.307 326.471 -16.868 409.961 25.219 452.048C43.933 469.458 68.897 478.551 94.424 477.255C146.08 473.821 195.883 456.658 238.689 427.54C281.494 456.659 331.297 473.821 382.954 477.255C408.481 478.55 433.445 469.457 452.159 452.048C494.245 409.962 481.684 326.471 427.532 238.578C481.684 150.702 494.245 67.2121 452.158 25.1251ZM382.202 33.7781C398.93 32.6391 415.422 38.2161 428.026 49.2751C454.001 75.2501 447.328 136.179 406.744 207.398C387.733 181.145 366.651 156.456 343.7 133.568C320.796 110.576 296.084 89.4601 269.801 70.4211C303.646 49.0661 342.274 36.4731 382.202 33.7781ZM49.351 49.2571C61.957 38.2051 78.449 32.6341 95.175 33.7781C135.109 36.5071 173.736 49.128 207.576 70.5051C155.011 108.654 108.795 154.859 70.633 207.414C30.048 136.178 23.375 75.2501 49.351 49.2571ZM49.351 427.916C23.376 401.923 30.049 340.978 70.633 269.776C89.644 296.029 110.726 320.718 133.677 343.606C156.554 366.557 181.231 387.639 207.473 406.65C136.288 447.235 75.326 453.908 49.351 427.916ZM157.81 319.423C132.834 294.615 110.204 267.552 90.209 238.578C130.513 180.678 180.789 130.402 238.689 90.0981C267.674 110.124 294.748 132.782 319.568 157.784C344.538 182.579 367.168 209.625 387.169 238.578C367.161 267.571 344.513 294.652 319.517 319.474C294.711 344.441 267.654 367.065 238.689 387.058C209.704 367.051 182.629 344.41 157.81 319.423ZM428.026 427.916C402.033 453.926 341.088 447.235 269.903 406.651C296.145 387.64 320.823 366.557 343.699 343.607C366.65 320.719 387.733 296.03 406.743 269.777C447.328 340.978 454.001 401.923 428.026 427.916Z" fill="black"/>
<path d="M238.688 306.845C276.391 306.845 306.955 276.281 306.955 238.578C306.955 200.875 276.391 170.311 238.688 170.311C200.985 170.311 170.421 200.875 170.421 238.578C170.421 276.281 200.985 306.845 238.688 306.845Z" fill="black"/>
</g>
<defs>
<clipPath id="clip0_18_2">
<rect width="477.377" height="477.377" fill="white"/>
</clipPath>
</defs>
</svg>
