<svg width="34" height="34" viewBox="0 0 34 34" fill="none" xmlns="http://www.w3.org/2000/svg">
<path d="M10.6149 21.7217L12.0033 23.1101L20.3333 14.78L21.7217 16.1684L23.11 14.78L21.7217 13.3917L23.11 12.0033L21.7217 10.615L20.3333 12.0033L18.945 10.615L17.5566 12.0033L18.945 13.3917L10.6149 21.7217ZM14.78 12.0033L16.1683 10.615L17.5566 12.0033L16.1683 13.3917L14.78 12.0033ZM14.78 12.0033L13.3916 13.3917L12.0033 12.0033L13.3916 10.615L14.78 12.0033ZM21.7217 18.9451L23.11 17.5567L21.7217 16.1684L20.3333 17.5567L21.7217 18.9451ZM21.7217 18.9451L20.3333 20.3334L21.7217 21.7217L23.11 20.3334L21.7217 18.9451Z" fill="#111111"/>
</svg>